#!OML:ASF X:\für Bonn\!DataBase\2005_08_10_Bjorn_Final\c3d\bjorn.ASF
:FULLY-SPECIFIED
:DEGREES
125
root 3.6719 7.78023 0.874498 475.042 78.4983 -591.411
lowerback 46.8112 -5.85304 6.0604
upperback 21.9848 0.454654 1.5254
thorax 4.51552 2.69156 -1.176
lowerneck -6.24819 -11.1854 2.53462
upperneck 6.74084 -15.3534 2.9156
head 3.30174 -7.41816 -0.20694
rclavicle -1.27222e-014 -1.11319e-014
rhumerus 10.6794 -18.5164 -73.2781
rradius 23.3543
rwrist 28.5337
rhand -52.0521 40.8721
rfingers 7.12502
rthumb -24.5574 12.427
lclavicle -1.27222e-014 -1.11319e-014
lhumerus 2.93744 -32.9405 75.9071
lradius 42.3533
lwrist -22.462
lhand -31.6404 -15.9518
lfingers 7.12502
lthumb -4.90149 13.9715
rfemur 167.451 67.6939 50.733
rtibia 204.73
rfoot -110.924 98.6698
rtoes -14.3669
lfemur -87.2327 32.0822 -31.1434
ltibia 151.48
lfoot -29.9925 -13.9704
ltoes -26.5621
126
root 3.6854 7.755 0.866668 474.673 78.5263 -591.646
lowerback 46.7512 -5.86385 6.04451
upperback 22.0757 0.444423 1.55936
thorax 4.62699 2.69267 -1.12483
lowerneck -6.29768 -11.1782 2.50901
upperneck 6.68365 -15.3378 2.84482
head 3.28666 -7.41595 -0.225069
rclavicle -4.77083e-014 -6.04305e-014
rhumerus 10.6516 -18.5716 -73.2445
rradius 23.3636
rwrist 28.7036
rhand -52.1066 40.805
rfingers 7.12502
rthumb -24.6097 12.367
lclavicle -4.77083e-014 -6.04305e-014
lhumerus 2.77207 -32.976 76.0856
lradius 42.1964
lwrist -22.4454
lhand -31.5753 -15.9023
lfingers 7.12502
lthumb -4.83864 14.0225
rfemur 167.341 67.4961 50.0627
rtibia 204.623
rfoot -114.096 98.4784
rtoes -13.9003
lfemur -87.1784 32.0499 -31.0657
ltibia 151.708
lfoot -29.9624 -13.8731
ltoes -26.6461
127
root 3.69977 7.73065 0.858396 474.143 78.5454 -592.07
lowerback 45.7073 -5.76453 5.94935
upperback 22.9575 0.39763 1.69719
thorax 4.87852 2.69229 -1.08539
lowerneck -6.27096 -11.1649 2.49397
upperneck 6.60023 -15.3119 2.79728
head 3.24946 -7.40903 -0.230846
rclavicle -4.13472e-014 -2.70347e-014
rhumerus 10.5826 -18.589 -73.1955
rradius 23.3686
rwrist 28.8059
rhand -52.1683 40.7058
rfingers 7.12502
rthumb -24.6689 12.2759
lclavicle -4.13472e-014 -2.70347e-014
lhumerus 2.55902 -33.0294 76.2633
lradius 42.066
lwrist -22.4103
lhand -31.539 -15.877
lfingers 7.12502
lthumb -4.80361 14.0486
rfemur 167.233 67.3208 49.34
rtibia 204.517
rfoot -117.566 98.3453
rtoes -13.5803
lfemur -87.1148 32.0444 -31.0036
ltibia 151.933
lfoot -29.969 -13.7839
ltoes -26.7856
128
root 3.71363 7.70897 0.85088 473.807 78.6146 -592.284
lowerback 45.6634 -5.7616 5.93977
upperback 23.005 0.39848 1.743
thorax 4.94401 2.69203 -1.02904
lowerneck -6.20824 -11.143 2.46421
upperneck 6.53666 -15.2717 2.75024
head 3.21376 -7.39463 -0.232016
rclavicle -6.36111e-015 -4.6118e-014
rhumerus 10.5253 -18.6286 -73.155
rradius 23.3366
rwrist 28.9705
rhand -52.2115 40.6071
rfingers 7.12502
rthumb -24.7102 12.1828
lclavicle -6.36111e-015 -4.6118e-014
lhumerus 2.30459 -33.0366 76.4825
lradius 41.9475
lwrist -22.3284
lhand -31.4773 -15.8872
lfingers 7.12502
lthumb -4.74406 14.0397
rfemur 167.146 67.1502 48.8058
rtibia 204.426
rfoot -120.892 98.1377
rtoes -12.927
lfemur -87.0119 32.026 -30.8273
ltibia 152.138
lfoot -29.9635 -13.776
ltoes -26.8019
129
root 3.72723 7.68804 0.842256 473.49 78.6798 -592.494
lowerback 45.5953 -5.77102 5.96522
upperback 23.0553 0.393906 1.76102
thorax 5.01897 2.69568 -1.01775
lowerneck -6.11098 -11.1258 2.49413
upperneck 6.42143 -15.2401 2.69907
head 3.1484 -7.38555 -0.238985
rclavicle -1.90833e-014 -4.13472e-014
rhumerus 10.447 -18.6799 -73.1309
rradius 23.3195
rwrist 29.1058
rhand -52.2283 40.7249
rfingers 7.12502
rthumb -24.7264 12.3029
lclavicle -1.90833e-014 -4.13472e-014
lhumerus 2.08104 -33.1683 76.5998
lradius 41.8548
lwrist -22.1155
lhand -31.4076 -15.9255
lfingers 7.12502
lthumb -4.67672 14.0029
rfemur 167.04 66.959 48.2462
rtibia 204.346
rfoot -124.166 98.0754
rtoes -12.5186
lfemur -86.9474 32.0001 -30.6872
ltibia 152.349
lfoot -29.9765 -13.704
ltoes -27.1011
130
root 3.74121 7.66891 0.83372 473.086 78.7503 -592.825
lowerback 45.528 -5.75944 5.97866
upperback 23.0677 0.39856 1.77643
thorax 5.04945 2.69647 -1.00897
lowerneck -6.00785 -11.1029 2.53856
upperneck 6.36313 -15.2009 2.62422
head 3.09847 -7.37093 -0.256813
rclavicle -3.18055e-014 -8.11041e-014
rhumerus 10.3133 -18.7692 -73.125
rradius 23.321
rwrist 29.3243
rhand -52.2046 40.7808
rfingers 7.12502
rthumb -24.7036 12.3557
lclavicle -3.18055e-014 -8.11041e-014
lhumerus 1.75826 -33.2976 76.7337
lradius 41.8135
lwrist -21.9322
lhand -31.3927 -15.9432
lfingers 7.12502
lthumb -4.66238 13.9855
rfemur 166.964 66.8529 47.7665
rtibia 204.28
rfoot -127.731 97.89
rtoes -11.8439
lfemur -86.9075 31.9923 -30.5513
ltibia 152.548
lfoot -29.9808 -13.6851
ltoes -27.1958
131
root 3.7545 7.6516 0.825822 472.774 78.8527 -593.045
lowerback 45.478 -5.7511 5.98486
upperback 23.0957 0.404478 1.81837
thorax 5.09415 2.69695 -0.967463
lowerneck -5.89742 -11.0649 2.51905
upperneck 6.28557 -15.1388 2.59214
head 3.04991 -7.34543 -0.250273
rclavicle 2.8625e-014 -2.54444e-014
rhumerus 10.2264 -18.7253 -73.0573
rradius 23.3046
rwrist 29.3828
rhand -52.2091 40.9119
rfingers 7.12502
rthumb -24.7079 12.4873
lclavicle 2.8625e-014 -2.54444e-014
lhumerus 1.43165 -33.3984 76.863
lradius 41.8219
lwrist -21.6935
lhand -31.3486 -15.9587
lfingers 7.12502
lthumb -4.61972 13.9709
rfemur 166.832 66.6889 47.2987
rtibia 204.207
rfoot -130.218 97.9262
rtoes -11.5328
lfemur -86.8347 31.9809 -30.3379
ltibia 152.738
lfoot -30.0152 -13.6445
ltoes -27.4216
132
root 3.76705 7.63597 0.816311 472.424 78.932 -593.339
lowerback 45.4366 -5.73965 6.03196
upperback 23.0727 0.418346 1.82606
thorax 5.07861 2.7025 -0.988544
lowerneck -5.7459 -11.0468 2.60008
upperneck 6.22217 -15.1061 2.51684
head 2.98654 -7.33355 -0.27034
rclavicle -1.90833e-014 -4.29375e-014
rhumerus 10.0352 -18.758 -73.0087
rradius 23.3016
rwrist 29.5148
rhand -52.223 40.9603
rfingers 7.12502
rthumb -24.7212 12.5375
lclavicle -1.90833e-014 -4.29375e-014
lhumerus 1.07531 -33.6128 76.9457
lradius 41.8418
lwrist -21.4538
lhand -31.3661 -15.9737
lfingers 7.12502
lthumb -4.63663 13.9555
rfemur 166.777 66.5906 46.9058
rtibia 204.167
rfoot -133.772 97.8076
rtoes -10.8722
lfemur -86.8097 31.9649 -30.2017
ltibia 152.913
lfoot -30.0367 -13.6259
ltoes -27.6206
133
root 3.7793 7.62053 0.808218 472.164 79.0166 -593.549
lowerback 45.3663 -5.73298 6.07705
upperback 23.0824 0.428541 1.82697
thorax 5.10784 2.71075 -1.01273
lowerneck -5.66591 -11.0065 2.73903
upperneck 6.15012 -15.0525 2.44193
head 2.92899 -7.30979 -0.302388
rclavicle -4.13472e-014 1.11319e-014
rhumerus 9.94621 -18.9101 -73.0489
rradius 23.2602
rwrist 29.7227
rhand -52.198 41.1509
rfingers 7.12502
rthumb -24.6973 12.7249
lclavicle -4.13472e-014 1.11319e-014
lhumerus 0.785541 -33.7552 76.9593
lradius 41.8926
lwrist -21.4011
lhand -31.3606 -15.9296
lfingers 7.12502
lthumb -4.63133 13.9998
rfemur 166.657 66.4673 46.4607
rtibia 204.1
rfoot -136.213 97.8528
rtoes -10.5556
lfemur -86.794 31.9343 -30.0509
ltibia 153.079
lfoot -30.0657 -13.5436
ltoes -28.0715
134
root 3.79142 7.60852 0.799209 471.943 79.1309 -593.745
lowerback 45.3072 -5.71432 6.12473
upperback 23.0579 0.447879 1.85721
thorax 5.09479 2.71535 -1.0119
lowerneck -5.58064 -10.9801 2.81969
upperneck 6.13149 -15.0118 2.34888
head 2.89215 -7.29225 -0.333813
rclavicle 7.63333e-014 4.13472e-014
rhumerus 9.76764 -18.8378 -72.953
rradius 23.2543
rwrist 29.7343
rhand -52.1777 41.1868
rfingers 7.12502
rthumb -24.6778 12.7581
lclavicle 7.63333e-014 4.13472e-014
lhumerus 0.472748 -33.8545 77.0036
lradius 41.942
lwrist -21.5305
lhand -31.3169 -15.8119
lfingers 7.12502
lthumb -4.58919 14.1184
rfemur 166.609 66.4064 46.2083
rtibia 204.059
rfoot -138.522 97.841
rtoes -10.1848
lfemur -86.8089 31.9088 -29.8548
ltibia 153.236
lfoot -30.073 -13.5586
ltoes -28.3616
135
root 3.8032 7.59681 0.79028 471.558 79.2242 -594.107
lowerback 45.2523 -5.68799 6.17171
upperback 23.0535 0.47964 1.84936
thorax 5.10505 2.73323 -1.05428
lowerneck -5.62857 -10.9602 2.98432
upperneck 6.15369 -14.993 2.22736
head 2.88457 -7.28245 -0.397587
rclavicle -3.49861e-014 -3.49861e-014
rhumerus 9.66295 -18.9537 -72.9607
rradius 23.2019
rwrist 29.9104
rhand -52.1694 41.2828
rfingers 7.12502
rthumb -24.6699 12.853
lclavicle -3.49861e-014 -3.49861e-014
lhumerus 0.263794 -33.985 76.96
lradius 41.9583
lwrist -21.7301
lhand -31.337 -15.6736
lfingers 7.12502
lthumb -4.60857 14.2563
rfemur 166.585 66.3691 45.9508
rtibia 204.014
rfoot -140.17 97.8744
rtoes -9.93662
lfemur -86.7907 31.9049 -29.6602
ltibia 153.385
lfoot -30.0783 -13.6655
ltoes -28.4518
136
root 3.81541 7.58774 0.781154 471.313 79.3256 -594.336
lowerback 45.193 -5.6598 6.22029
upperback 23.0432 0.514517 1.87823
thorax 5.10968 2.74831 -1.05938
lowerneck -5.7212 -10.9351 3.13651
upperneck 6.20693 -14.9643 2.03539
head 2.89092 -7.26913 -0.48479
rclavicle 3.81667e-014 -2.22639e-014
rhumerus 9.55526 -19.0615 -72.9323
rradius 23.1623
rwrist 30.0913
rhand -52.1647 41.3856
rfingers 7.12502
rthumb -24.6653 12.9552
lclavicle 3.81667e-014 -2.22639e-014
lhumerus 0.0526892 -34.101 76.9637
lradius 41.9882
lwrist -21.8961
lhand -31.3697 -15.5692
lfingers 7.12502
lthumb -4.64015 14.3599
rfemur 166.42 66.2832 45.6286
rtibia 203.992
rfoot -141.88 97.9255
rtoes -9.61312
lfemur -86.7849 31.8802 -29.4207
ltibia 153.514
lfoot -30.0095 -13.9067
ltoes -28.4488
137
root 3.82789 7.58184 0.771886 470.947 79.4236 -594.655
lowerback 45.1865 -5.64087 6.26903
upperback 23.0455 0.549976 1.88483
thorax 5.11699 2.7694 -1.08753
lowerneck -5.9349 -10.9013 3.31793
upperneck 6.32277 -14.9333 1.82038
head 2.93705 -7.25199 -0.59437
rclavicle -4.77083e-014 6.36111e-015
rhumerus 9.48161 -19.1141 -72.8935
rradius 23.1138
rwrist 30.1802
rhand -52.1437 41.41
rfingers 7.12502
rthumb -24.6452 12.9769
lclavicle -4.77083e-014 6.36111e-015
lhumerus -0.0698895 -34.2257 76.903
lradius 41.9692
lwrist -22.046
lhand -31.4736 -15.4744
lfingers 7.12502
lthumb -4.74044 14.4526
rfemur 166.309 66.1593 45.374
rtibia 203.988
rfoot -143.715 97.9597
rtoes -9.14767
lfemur -86.6793 31.8648 -29.1518
ltibia 153.617
lfoot -30.0024 -14.1168
ltoes -28.4877
138
root 3.83958 7.57864 0.763045 470.492 79.5185 -595.015
lowerback 45.2807 -5.61453 6.27308
upperback 23.0253 0.590727 1.90994
thorax 5.07342 2.78571 -1.07679
lowerneck -6.12296 -10.8535 3.42527
upperneck 6.40925 -14.8781 1.63547
head 2.97755 -7.22476 -0.680547
rclavicle 0 -1.27222e-014
rhumerus 9.3926 -19.1484 -72.838
rradius 23.0724
rwrist 30.2666
rhand -52.0951 41.4921
rfingers 7.12502
rthumb -24.5986 13.0527
lclavicle 0 -1.27222e-014
lhumerus -0.241502 -34.3218 76.8996
lradius 41.9654
lwrist -22.1677
lhand -31.5961 -15.3878
lfingers 7.12502
lthumb -4.85871 14.5364
rfemur 166.503 66.0699 45.5199
rtibia 204.016
rfoot -145.414 97.9177
rtoes -8.70602
lfemur -86.4245 31.8693 -28.8244
ltibia 153.685
lfoot -30.0119 -14.3772
ltoes -28.3997
139
root 3.85141 7.57826 0.752829 470.097 79.6105 -595.31
lowerback 45.3554 -5.61418 6.30158
upperback 23.0379 0.614555 1.91744
thorax 5.07303 2.80276 -1.08926
lowerneck -6.35739 -10.8014 3.55526
upperneck 6.46034 -14.8208 1.43407
head 3.01173 -7.1981 -0.776909
rclavicle 6.67916e-014 6.67916e-014
rhumerus 9.3758 -19.1912 -72.8048
rradius 23.0055
rwrist 30.4279
rhand -52.1297 41.5653
rfingers 7.12502
rthumb -24.6318 13.1304
lclavicle 6.67916e-014 6.67916e-014
lhumerus -0.296875 -34.4243 76.8085
lradius 41.9402
lwrist -22.2207
lhand -31.6631 -15.3519
lfingers 7.12502
lthumb -4.92339 14.5709
rfemur 166.564 65.9205 45.5484
rtibia 204.054
rfoot -146.316 97.9687
rtoes -8.41565
lfemur -86.1646 31.8602 -28.4951
ltibia 153.739
lfoot -30.0118 -14.6651
ltoes -28.2875
